<svg xmlns="http://www.w3.org/2000/svg" viewBox="0 0 672.98 672.98"><defs><style>.cls-1{fill:#03544c;}.cls-2{fill:#00c76f;}</style></defs><g id="Camada_2" data-name="Camada 2"><g id="Layer_1" data-name="Layer 1"><rect class="cls-1" width="672.98" height="672.98" rx="134.45"/><circle class="cls-2" cx="369.51" cy="392.8" r="2.71"/><path class="cls-2" d="M526.25,455.72,469.85,371h-86L329,453c-21.59,30.51-6.75,77.6,26.07,77.6H498.68C531.5,530.63,546.25,486.33,526.25,455.72Z"/><path class="cls-2" d="M448.17,434.37a11.9,11.9,0,1,1,11.89,11.89A11.89,11.89,0,0,1,448.17,434.37Z"/><circle class="cls-2" cx="413.79" cy="398.64" r="8.54"/><path class="cls-2" d="M376,421.35a5.33,5.33,0,1,1,5.33,5.33A5.33,5.33,0,0,1,376,421.35Z"/><path class="cls-2" d="M412.82,345.75a10.6,10.6,0,1,1,10.6,10.6A10.6,10.6,0,0,1,412.82,345.75Z"/><circle class="cls-2" cx="428.47" cy="280.22" r="2.73"/><circle class="cls-2" cx="417.03" cy="254.8" r="5.1"/><path class="cls-2" d="M505.7,545H348c-15.79,0-29.85-9.39-38.57-25.77-12-22.5-10.76-51.41,3.06-71.95l78.83-117.25a54.63,54.63,0,0,1,5.83-7.29V165.29c-5.28-2.72-8.91-9-8.91-16.29v-3.35c0-9.76,6.6-17.71,14.72-17.71h47.75c8.12,0,14.72,7.95,14.72,17.71V149c0,7.25-3.63,13.57-8.92,16.29V322.78a53.91,53.91,0,0,1,5.84,7.29l78.83,117.25c13.81,20.54,15,49.45,3.06,71.95C535.55,535.65,521.5,545,505.7,545ZM403,137.37c-2.5,0-5.29,3.41-5.29,8.28V149c0,4.67,2.52,7.92,4.86,8.25l4.06.57V326.73l-1.44,1.4a44.05,44.05,0,0,0-6,7.21L320.35,452.58c-13.76,20.48-11.2,46-2.55,62.26,7,13.2,18.05,20.76,30.24,20.76H505.7c12.2,0,23.22-7.56,30.25-20.76,8.65-16.24,11.21-41.78-2.55-62.26h0L454.57,335.34a44.05,44.05,0,0,0-6-7.21l-1.44-1.4V157.82l4.06-.57c2.33-.33,4.86-3.58,4.86-8.25v-3.35c0-4.87-2.79-8.28-5.29-8.28Z"/><path class="cls-2" d="M348.76,480.19l-62-70.42H203.7l-58,67.54c-15.11,19.57-1.55,51.25,30.17,51.25h138.8C346.36,528.56,360.09,499.07,348.76,480.19Z"/><path class="cls-2" d="M227.51,424.46a7.57,7.57,0,1,1,7.57,7.57A7.57,7.57,0,0,1,227.51,424.46Z"/><circle class="cls-2" cx="265.13" cy="404.91" r="7.57"/><path class="cls-2" d="M241.64,361.65a5.11,5.11,0,1,1,5.11,5.1A5.11,5.11,0,0,1,241.64,361.65Z"/><circle class="cls-2" cx="257.79" cy="334.39" r="5.1"/><circle class="cls-2" cx="237.84" cy="301.44" r="5.1"/><path class="cls-2" d="M324.91,542.76H167.25a46.68,46.68,0,0,1-35.15-77.39l78.83-90.25a47.47,47.47,0,0,1,5.47-5.33V250.35a14.7,14.7,0,0,1-8.91-13.54v-2.57a14.73,14.73,0,0,1,14.72-14.72H270a14.74,14.74,0,0,1,14.72,14.72v2.57a14.7,14.7,0,0,1-8.92,13.54V369.79a47.56,47.56,0,0,1,5.48,5.33l78.83,90.25a46.68,46.68,0,0,1-35.16,77.39ZM222.21,229a5.29,5.29,0,0,0-5.29,5.29v2.57a5.28,5.28,0,0,0,4.71,5.26l4.21.45V374.46l-1.91,1.41a38.1,38.1,0,0,0-5.9,5.46L139.2,471.58a37.25,37.25,0,0,0,28.05,61.75H324.91A37.25,37.25,0,0,0,353,471.58l-78.83-90.25a38.1,38.1,0,0,0-5.9-5.46l-1.91-1.41V242.52l4.21-.45a5.28,5.28,0,0,0,4.71-5.26v-2.57A5.3,5.3,0,0,0,270,229Z"/></g></g></svg>